<?xml version="1.0" standalone="no"?><!DOCTYPE svg PUBLIC "-//W3C//DTD SVG 1.1//EN" "http://www.w3.org/Graphics/SVG/1.1/DTD/svg11.dtd"><svg t="1751039557061" class="icon" viewBox="0 0 1024 1024" version="1.1" xmlns="http://www.w3.org/2000/svg" p-id="21867" xmlns:xlink="http://www.w3.org/1999/xlink" width="200" height="200"><path d="M616.580355 560.434694L580.241667 596.841624l-171.047739 90.966142c-18.220525 10.918667-25.488263 29.139192-14.569596 47.325597l83.698405 171.047739 14.569596 76.430668H343.647806c-174.698669 0-309.339479 0-309.339478-94.617072v-18.220525C34.308328 691.458696 172.600067 545.93334 343.647806 545.93334h181.966407c32.756 0 61.861072 3.616808 90.966142 14.535475zM416.461666 0c131.024002 0 236.55974 112.803476 236.55974 254.746145s-105.535739 254.746145-236.55974 254.746144-236.55974-112.803476-236.559741-254.746144S285.437664 0 416.461666 0z" fill="#1296db" p-id="21868" data-spm-anchor-id="a313x.search_index.0.i18.16223a81pNpPcS" class="selected"></path><path d="M518.312354 760.587505l76.430668 80.081597c7.301858 7.267738 10.918667 18.186404 10.918667 29.105071l-18.186405 112.837597c-3.650929 29.105071 21.837334 47.291476 47.325597 36.372809l94.617072-50.942405c10.918667-3.650929 21.837334-3.650929 29.105071 0l94.617072 50.942405c25.488263 14.569596 50.942405-7.267738 47.325596-36.372809l-18.220525-112.837597c-3.616808-10.918667 0-21.837334 10.918667-29.105071l76.430667-80.081597c18.186404-18.186404 7.267738-54.593334-18.186404-58.210143l-105.535739-14.569596c-10.918667 0-18.220525-7.267738-25.488263-18.186404l-47.291475-101.884809c-3.650929-10.918667-18.220525-18.220525-29.139192-18.220526-10.918667 0-25.454142 7.301858-29.105071 18.220526l-47.325597 101.884809a27.364909 27.364909 0 0 1-25.454142 18.186404l-105.535739 14.569596c-29.105071 3.650929-40.023738 36.40693-18.220525 58.210143z" fill="#1296db" opacity=".3" p-id="21869" data-spm-anchor-id="a313x.search_index.0.i20.16223a81pNpPcS" class="selected"></path></svg>