<?xml version="1.0" standalone="no"?><!DOCTYPE svg PUBLIC "-//W3C//DTD SVG 1.1//EN" "http://www.w3.org/Graphics/SVG/1.1/DTD/svg11.dtd"><svg t="1751038553005" class="icon" viewBox="0 0 1024 1024" version="1.1" xmlns="http://www.w3.org/2000/svg" p-id="11813" xmlns:xlink="http://www.w3.org/1999/xlink" width="200" height="200"><path d="M511.926857 0.804571A511.707429 511.707429 0 0 0 0.731429 512 511.707429 511.707429 0 0 0 512 1023.049143 511.707429 511.707429 0 0 0 1023.049143 512 511.707429 511.707429 0 0 0 511.926857 0.804571z" fill="#09B590" p-id="11814"></path><path d="M709.851429 637.220571L533.211429 535.04v-278.674286a42.642286 42.642286 0 0 0-85.211429 0v298.203429c0 15.798857 19.602286 29.037714 32.402286 36.352 3.510857 5.339429 13.238857 10.166857 19.163428 13.531428L675.254857 710.948571c20.406857 11.702857 42.422857 4.754286 54.198857-15.579428 11.702857-20.333714 0.804571-46.372571-19.602285-58.148572z" fill="#FFFFFF" p-id="11815"></path></svg>